<?xml version="1.0" standalone="no"?>
<!DOCTYPE svg PUBLIC "-//W3C//DTD SVG 20010904//EN"
 "http://www.w3.org/TR/2001/REC-SVG-20010904/DTD/svg10.dtd">
<svg version="1.0" xmlns="http://www.w3.org/2000/svg"
 width="310.000000pt" height="275.000000pt" viewBox="0 0 310.000000 275.000000"
 preserveAspectRatio="xMidYMid meet">

<g transform="translate(0.000000,275.000000) scale(0.100000,-0.100000)"
fill="#000000" stroke="none">
<path d="M1475 2566 c-16 -7 -40 -24 -52 -37 -25 -27 -74 -130 -94 -197 -14
-49 -25 -57 -94 -66 -119 -17 -252 -60 -318 -104 -41 -28 -77 -78 -77 -110 0
-21 -8 -25 -66 -37 -38 -7 -58 -27 -79 -79 l-16 -37 -52 6 c-59 8 -72 -1 -86
-52 -5 -19 -19 -34 -47 -47 -52 -24 -56 -32 -49 -94 l5 -52 -50 -31 c-63 -38
-62 -36 -68 -225 l-2 -60 -101 -11 c-56 -6 -106 -16 -112 -22 -8 -8 -3 -19 17
-40 23 -24 27 -35 21 -60 -10 -47 1 -66 55 -95 49 -27 50 -28 44 -65 -5 -33
-2 -40 25 -64 30 -25 31 -29 31 -104 0 -135 38 -174 204 -212 110 -25 299 -58
388 -67 105 -11 105 -14 3 -109 -80 -75 -93 -84 -120 -79 -22 4 -39 -2 -64
-20 -19 -15 -36 -26 -38 -26 -1 0 -18 24 -36 53 -55 85 -130 99 -199 38 -27
-24 -30 -32 -24 -63 9 -51 53 -102 122 -143 34 -20 76 -54 93 -76 18 -21 39
-39 48 -39 14 0 155 116 175 145 4 5 8 21 8 35 0 19 27 48 116 125 164 142
142 132 276 122 62 -5 241 -6 398 -2 157 3 293 6 302 6 10 0 76 -51 148 -113
108 -93 130 -117 130 -140 0 -22 17 -42 86 -103 48 -41 92 -75 99 -75 7 0 29
18 49 41 21 22 64 56 96 75 73 43 111 90 117 148 5 41 3 44 -31 65 -59 37
-106 38 -144 6 -18 -15 -40 -41 -49 -59 -23 -44 -31 -47 -72 -19 -25 17 -44
23 -63 19 -22 -4 -40 7 -117 76 -50 44 -91 85 -91 89 0 11 16 14 165 34 122
17 330 56 397 75 89 26 134 102 123 210 -6 64 -6 66 19 80 29 15 41 47 32 84
-5 22 0 28 46 53 52 28 53 29 53 73 0 31 7 55 24 78 16 22 20 37 13 44 -5 5
-55 15 -111 21 l-101 11 -2 60 c-1 34 -2 81 -3 106 -1 65 -11 86 -53 111 -52
31 -61 46 -55 84 9 56 -3 81 -47 99 -29 11 -41 23 -46 43 -12 52 -32 65 -90
57 -51 -6 -51 -6 -63 27 -17 48 -50 79 -93 85 -42 7 -52 16 -62 58 -19 79
-170 156 -362 187 -44 6 -86 15 -94 20 -9 4 -21 27 -27 51 -13 48 -65 164 -85
189 -8 9 -29 26 -48 38 -41 25 -127 28 -175 7z m230 -537 c180 -22 379 -90
506 -172 69 -44 197 -146 224 -179 11 -13 39 -46 62 -73 137 -166 251 -447
282 -695 11 -97 -8 -149 -66 -178 -97 -50 -534 -120 -883 -142 -417 -26 -934
15 -1321 106 -167 39 -194 78 -170 247 40 284 176 572 352 748 94 94 178 154
294 212 228 113 474 156 720 126z m-811 -66 c51 -34 55 -39 39 -50 -27 -20
-43 -15 -61 17 -31 55 -97 48 -109 -11 -4 -19 -12 -29 -24 -29 -24 0 -28 9
-17 48 6 24 18 37 41 47 49 22 69 18 131 -22z m1436 31 c56 -12 97 -104 46
-104 -19 0 -25 6 -28 27 -4 35 -49 63 -75 47 -10 -6 -22 -20 -28 -32 -13 -29
-31 -35 -63 -18 l-26 14 40 20 c22 11 46 28 53 36 15 17 32 19 81 10z m-1481
-86 c19 -31 19 -34 4 -45 -25 -19 -33 -16 -48 20 -9 22 -10 36 -3 45 16 18 24
15 47 -20z m1460 23 c11 -7 11 -15 1 -45 -12 -38 -20 -42 -50 -26 -19 10 -19
11 1 45 22 37 26 40 48 26z m-1679 -56 c0 -2 -15 -18 -34 -37 -19 -19 -40 -54
-47 -78 -15 -54 -16 -56 -51 -64 -23 -5 -27 -2 -33 25 -8 36 1 49 47 63 26 9
36 20 46 51 7 22 18 42 24 46 9 6 48 1 48 -6z m1908 3 c7 -7 12 -21 12 -32 1
-29 22 -54 53 -61 37 -10 50 -29 42 -65 -8 -34 -6 -34 -37 -19 -15 6 -30 28
-41 59 -10 29 -32 61 -54 80 -28 25 -33 34 -22 41 19 12 33 11 47 -3z m-1750
-30 c22 -22 12 -30 -28 -23 -89 15 -169 -60 -157 -146 7 -50 -9 -60 -26 -17
-25 62 6 138 73 177 39 23 119 28 138 9z m1695 -21 c21 -16 42 -45 53 -72 15
-40 15 -51 4 -86 -18 -53 -35 -44 -32 17 5 92 -62 152 -154 138 -45 -6 -46 -6
-34 16 11 20 18 22 70 18 43 -3 67 -11 93 -31z m-1781 -87 c-34 -33 -65 -60
-67 -60 -3 0 -5 12 -5 28 1 48 50 91 105 92 30 0 29 -1 -33 -60z m1756 25 c12
-15 22 -39 22 -57 l0 -31 -57 54 c-32 30 -60 58 -62 63 -9 21 75 -5 97 -29z
m-1903 -116 c10 -29 -1 -63 -43 -135 -55 -97 -75 -76 -26 30 14 31 25 68 24
84 -3 40 -2 42 19 42 11 0 23 -9 26 -21z m2050 -8 c-4 -20 2 -48 20 -91 14
-34 25 -74 23 -89 -3 -22 -10 -13 -51 62 -39 70 -47 94 -42 117 5 24 12 30 32
30 22 0 24 -3 18 -29z m-2125 -16 c0 -19 -8 -28 -37 -40 -21 -9 -48 -26 -60
-37 -20 -19 -23 -19 -23 -4 0 16 16 34 75 81 38 31 45 31 45 0z m2248 -39 c12
-11 22 -28 22 -39 0 -20 0 -20 -23 1 -12 11 -39 28 -60 37 -34 14 -48 40 -31
58 6 6 50 -21 92 -57z m-2358 -356 c0 -5 -12 -10 -27 -9 l-28 1 25 8 c14 4 26
8 28 9 1 1 2 -3 2 -9z m2420 -6 c0 -2 -11 -4 -25 -4 -14 0 -25 4 -25 9 0 4 11
6 25 3 14 -2 25 -6 25 -8z m-2493 -50 c51 5 64 4 60 -6 -3 -7 -14 -48 -24 -91
-13 -58 -22 -77 -33 -75 -16 4 -18 45 -5 84 6 19 1 24 -44 39 -49 16 -86 49
-75 67 3 5 17 2 31 -8 21 -13 39 -15 90 -10z m2643 12 c0 -21 -46 -54 -91 -66
-44 -12 -46 -17 -22 -59 17 -29 17 -31 0 -48 -15 -16 -19 -16 -27 -3 -5 8 -10
22 -10 32 0 9 -9 44 -19 77 l-19 61 67 -6 c51 -4 70 -2 86 10 25 19 35 20 35
2z m-2345 -737 c33 -29 35 -35 35 -90 0 -58 16 -81 27 -39 3 11 12 20 20 20 8
0 29 11 47 25 39 30 46 31 46 6 0 -10 15 -32 34 -49 l35 -30 -52 -44 c-104
-88 -95 -84 -123 -57 l-25 23 33 16 c18 8 34 24 36 34 3 15 1 17 -14 10 -11
-5 -44 -9 -75 -9 -46 0 -62 5 -93 29 -82 62 -98 134 -36 167 48 26 64 24 105
-12z m2025 11 c21 -11 42 -24 45 -30 20 -33 -58 -136 -123 -162 -33 -13 -92
-12 -106 2 -15 15 -36 12 -36 -5 0 -8 16 -23 35 -33 l36 -18 -25 -23 -25 -23
-75 63 c-45 39 -69 66 -61 69 17 7 65 65 65 79 0 18 15 13 40 -14 13 -14 31
-25 41 -25 10 0 21 -9 24 -21 13 -38 30 -14 30 43 0 59 18 91 60 109 29 11 32
11 75 -11z"/>
<path d="M1240 1945 c-14 -17 -12 -17 50 -15 34 1 55 -5 84 -25 39 -27 53 -27
43 -1 -17 43 -150 73 -177 41z"/>
<path d="M1737 1939 c-36 -19 -56 -44 -44 -55 3 -3 23 6 45 21 32 21 50 26 86
24 49 -3 69 6 46 21 -25 16 -93 10 -133 -11z"/>
<path d="M1281 1866 c-12 -13 -28 -43 -35 -67 -14 -46 -17 -49 -87 -73 -54
-19 -87 -41 -77 -52 4 -4 34 5 67 20 93 41 173 33 238 -27 29 -26 40 -16 19
16 -13 19 -14 30 -6 51 18 48 12 113 -12 136 -30 28 -79 26 -107 -4z m99 -30
c9 -26 3 -93 -10 -101 -5 -3 -6 4 -3 15 8 29 -5 70 -22 70 -9 0 -12 -6 -9 -15
6 -14 -5 -20 -34 -16 -8 1 -16 -7 -19 -18 -8 -32 -24 -25 -17 7 15 62 33 82
77 82 20 0 30 -7 37 -24z"/>
<path d="M1721 1864 c-23 -30 -26 -69 -10 -127 9 -32 8 -42 -5 -56 -9 -10 -16
-21 -16 -24 0 -13 29 -7 37 8 15 25 85 55 131 55 27 0 68 -11 103 -26 33 -15
63 -24 67 -20 11 12 -36 42 -94 60 -32 10 -55 24 -58 34 -2 9 -7 29 -10 43
-16 74 -104 105 -145 53z m103 -26 c20 -32 30 -88 17 -88 -6 0 -11 10 -11 21
0 17 -5 20 -21 16 -15 -4 -23 0 -26 14 -9 33 -28 15 -31 -30 -2 -23 -7 -39
-13 -36 -13 9 -11 99 3 113 20 20 66 14 82 -10z"/>
<path d="M885 1740 c-11 -4 -35 -24 -54 -43 -46 -48 -54 -116 -21 -175 27 -47
101 -95 185 -118 85 -23 304 -30 373 -11 50 13 54 13 99 -9 60 -31 116 -31
176 0 44 22 50 22 99 10 29 -8 96 -14 149 -14 304 0 492 123 419 275 -27 56
-68 86 -126 93 -52 5 -60 -11 -11 -24 22 -7 37 -20 50 -46 22 -45 14 -83 -21
-106 -41 -27 -182 -21 -315 11 -159 39 -260 33 -318 -19 -12 -10 -19 -12 -24
-5 -3 6 -24 20 -45 31 -54 28 -144 26 -271 -5 -238 -57 -349 -40 -349 55 0 30
6 43 31 64 17 14 37 26 45 26 8 0 14 5 14 10 0 12 -57 12 -85 0z"/>
</g>
</svg>
